<?xml version="1.0" encoding="UTF-8" standalone="no"?>
<!-- Created with Inkscape (http://www.inkscape.org/) -->

<svg
   width="89.948135mm"
   height="188.61395mm"
   viewBox="0 0 89.948137 188.61395"
   version="1.1"
   id="svg5"
   xml:space="preserve"
   xmlns="http://www.w3.org/2000/svg"
   xmlns:svg="http://www.w3.org/2000/svg"><defs
     id="defs2" /><g
     id="layer1"
     transform="translate(64.333677,-82.752672)"><path
       style="fill:#fefefe;stroke-width:0.352778"
       d="m -8.9475681,258.34967 v -13.01696 l -1.027275,-1.95288 c -3.1866979,-6.05801 -12.1835789,-15.93753 -20.1687839,-22.14746 -8.24471,-6.41174 -20.83155,-13.03152 -28.50265,-14.99037 -1.81963,-0.46465 -3.8437,-0.84482 -4.49791,-0.84482 -0.65422,0 -1.18949,-0.15875 -1.18949,-0.35278 0,-0.19403 0.19844,-0.35521 0.44097,-0.35818 0.32849,-0.004 0.32035,-0.0819 -0.0319,-0.30514 -0.68865,-0.43648 20.49741,-13.22515 21.42265,-12.93149 1.87417,0.59484 8.96865,-1.33004 14.38795,-3.90374 5.387043,-2.55839 8.436271,-5.86075 12.018965,-13.01673 2.692795,-5.37852 4.103063,-9.70191 6.3291509,-19.40299 0.890238,-3.87957 0.967761,-4.79293 0.928187,-10.9359 -0.03126,-4.85021 -0.25302,-8.11657 -0.802408,-11.81805 -1.6930369,-11.40682 -3.0680579,-16.17274 -7.7525309,-26.87075 -3.345078,-7.639212 -4.771517,-10.065574 -8.545911,-14.53652 -4.537423,-5.374796 -4.691303,-5.630582 -4.138473,-6.879499 0.45177,-1.02063 0.54505,-1.053308 3.6528,-1.279739 3.836691,-0.279541 7.556705,0.505372 15.854172,3.345189 8.6059219,2.945386 14.6772309,6.740182 20.689898,12.931967 4.49593,4.629862 5.516552,6.078272 7.59854,10.783442 2.221516,5.02049 2.188764,4.93886 2.377063,5.92535 0.09259,0.48507 1.053747,3.61895 2.135907,6.96417 2.891825,8.93932 3.354617,11.6347 3.381915,19.69684 0.04168,12.31066 -1.003759,19.59443 -4.255319,29.6475 -2.108436,6.51881 -4.791918,12.94829 -7.557844,18.1082 -2.327561,4.34213 -3.471894,5.85233 -5.7522531,7.59135 l -1.703913,1.29942 -4.614711,0.11598 c -7.565122,0.19011 -9.60271,1.19625 -11.608752,5.73228 -1.0169319,2.29945 -1.0513379,4.07017 -0.1270919,6.54043 1.1878269,3.17476 3.8610469,5.56404 10.27991593,9.18806 6.44214897,3.63716 12.55879407,6.02252 14.95458907,5.83197 1.339349,-0.10652 1.577361,-0.028 1.577361,0.52052 0,0.35528 -0.635,4.43251 -1.411111,9.06051 l -1.411112,8.41453 V 257.935 271.36662 H 2.5177499 -8.9475281 Z"
       id="path203" /></g></svg>
